<mxfile host="65bd71144e">
    <diagram id="9fKdsIKTerqLhrXgKqZ8" name="第 1 页">
        <mxGraphModel dx="1287" dy="917" grid="1" gridSize="10" guides="1" tooltips="1" connect="1" arrows="1" fold="1" page="1" pageScale="1" pageWidth="827" pageHeight="1169" math="0" shadow="0">
            <root>
                <mxCell id="0"/>
                <mxCell id="1" parent="0"/>
                <mxCell id="2" value="" style="sketch=0;aspect=fixed;html=1;points=[];align=center;image;fontSize=12;image=img/lib/mscae/Cloud_Services_Classic.svg;" parent="1" vertex="1">
                    <mxGeometry x="377.78" y="190" width="50" height="42" as="geometry"/>
                </mxCell>
                <mxCell id="3" value="" style="sketch=0;aspect=fixed;html=1;points=[];align=center;image;fontSize=12;image=img/lib/mscae/Cloud_Services_Classic.svg;" parent="1" vertex="1">
                    <mxGeometry x="332.28" y="475" width="130.95" height="110" as="geometry"/>
                </mxCell>
                <mxCell id="4" value="ThingsPanel" style="text;html=1;align=center;verticalAlign=middle;resizable=0;points=[];autosize=1;strokeColor=none;fillColor=none;" parent="1" vertex="1">
                    <mxGeometry x="362.75" y="585" width="80" height="20" as="geometry"/>
                </mxCell>
                <mxCell id="5" value="A协议插件服务" style="text;html=1;align=center;verticalAlign=middle;resizable=0;points=[];autosize=1;strokeColor=none;fillColor=none;" parent="1" vertex="1">
                    <mxGeometry x="401" y="232" width="100" height="20" as="geometry"/>
                </mxCell>
                <mxCell id="6" value="" style="sketch=0;aspect=fixed;html=1;points=[];align=center;image;fontSize=12;image=img/lib/mscae/Virtual_Network.svg;rotation=90;" parent="1" vertex="1">
                    <mxGeometry x="350" y="335.46000000000004" width="105.5" height="59.08" as="geometry"/>
                </mxCell>
                <mxCell id="7" value="Mqtt broker" style="text;html=1;align=center;verticalAlign=middle;resizable=0;points=[];autosize=1;strokeColor=none;fillColor=none;" parent="1" vertex="1">
                    <mxGeometry x="321" y="355.00000000000006" width="80" height="20" as="geometry"/>
                </mxCell>
                <mxCell id="8" value="" style="endArrow=none;html=1;entryX=0.537;entryY=0;entryDx=0;entryDy=0;entryPerimeter=0;exitX=1.04;exitY=0.501;exitDx=0;exitDy=0;exitPerimeter=0;" parent="1" source="6" target="3" edge="1">
                    <mxGeometry width="50" height="50" relative="1" as="geometry">
                        <mxPoint x="460" y="356" as="sourcePoint"/>
                        <mxPoint x="590" y="356" as="targetPoint"/>
                    </mxGeometry>
                </mxCell>
                <mxCell id="9" value="" style="aspect=fixed;html=1;points=[];align=center;image;fontSize=12;image=img/lib/azure2/preview/IoT_Edge.svg;" parent="1" vertex="1">
                    <mxGeometry x="355.81" y="100" width="30.45" height="30" as="geometry"/>
                </mxCell>
                <mxCell id="10" value="" style="aspect=fixed;html=1;points=[];align=center;image;fontSize=12;image=img/lib/azure2/preview/IoT_Edge.svg;" parent="1" vertex="1">
                    <mxGeometry x="412.33000000000004" y="100" width="30.45" height="30" as="geometry"/>
                </mxCell>
                <mxCell id="11" value="" style="aspect=fixed;html=1;points=[];align=center;image;fontSize=12;image=img/lib/azure2/preview/IoT_Edge.svg;" parent="1" vertex="1">
                    <mxGeometry x="520.03" y="100" width="30.45" height="30" as="geometry"/>
                </mxCell>
                <mxCell id="12" value="其他A协议设备" style="text;html=1;align=center;verticalAlign=middle;resizable=0;points=[];autosize=1;strokeColor=none;fillColor=none;" parent="1" vertex="1">
                    <mxGeometry x="321.03" y="80" width="100" height="20" as="geometry"/>
                </mxCell>
                <mxCell id="16" value="" style="aspect=fixed;html=1;points=[];align=center;image;fontSize=12;image=img/lib/azure2/preview/IoT_Edge.svg;" parent="1" vertex="1">
                    <mxGeometry x="214.81" y="100" width="30.45" height="30" as="geometry"/>
                </mxCell>
                <mxCell id="17" value="Mqtt协议直连设备" style="text;html=1;align=center;verticalAlign=middle;resizable=0;points=[];autosize=1;strokeColor=none;fillColor=none;" parent="1" vertex="1">
                    <mxGeometry x="175.03" y="80" width="110" height="20" as="geometry"/>
                </mxCell>
                <mxCell id="18" value="" style="endArrow=none;html=1;exitX=0.533;exitY=1.067;exitDx=0;exitDy=0;exitPerimeter=0;" parent="1" source="16" edge="1">
                    <mxGeometry width="50" height="50" relative="1" as="geometry">
                        <mxPoint x="470" y="366" as="sourcePoint"/>
                        <mxPoint x="390" y="310" as="targetPoint"/>
                        <Array as="points">
                            <mxPoint x="231" y="310"/>
                        </Array>
                    </mxGeometry>
                </mxCell>
                <mxCell id="19" value="其他B协议设备" style="text;html=1;align=center;verticalAlign=middle;resizable=0;points=[];autosize=1;strokeColor=none;fillColor=none;" parent="1" vertex="1">
                    <mxGeometry x="490.02" y="80" width="100" height="20" as="geometry"/>
                </mxCell>
                <mxCell id="20" value="" style="aspect=fixed;html=1;points=[];align=center;image;fontSize=12;image=img/lib/azure2/preview/IoT_Edge.svg;" parent="1" vertex="1">
                    <mxGeometry x="580.03" y="100" width="30.45" height="30" as="geometry"/>
                </mxCell>
                <mxCell id="21" value="" style="sketch=0;aspect=fixed;html=1;points=[];align=center;image;fontSize=12;image=img/lib/mscae/Cloud_Services_Classic.svg;" parent="1" vertex="1">
                    <mxGeometry x="530.03" y="190" width="50" height="42" as="geometry"/>
                </mxCell>
                <mxCell id="23" value="" style="endArrow=none;html=1;exitX=0.482;exitY=1;exitDx=0;exitDy=0;exitPerimeter=0;entryX=-0.01;entryY=0.515;entryDx=0;entryDy=0;entryPerimeter=0;" parent="1" source="2" target="6" edge="1">
                    <mxGeometry width="50" height="50" relative="1" as="geometry">
                        <mxPoint x="241.00984999999991" y="82.00999999999999" as="sourcePoint"/>
                        <mxPoint x="411.86379999999986" y="322.88300000000004" as="targetPoint"/>
                    </mxGeometry>
                </mxCell>
                <mxCell id="24" value="" style="endArrow=none;html=1;exitX=0.503;exitY=1.099;exitDx=0;exitDy=0;exitPerimeter=0;" parent="1" source="21" edge="1">
                    <mxGeometry width="50" height="50" relative="1" as="geometry">
                        <mxPoint x="251.00984999999991" y="92.00999999999999" as="sourcePoint"/>
                        <mxPoint x="410" y="310" as="targetPoint"/>
                        <Array as="points">
                            <mxPoint x="555" y="310"/>
                        </Array>
                    </mxGeometry>
                </mxCell>
                <mxCell id="26" value="" style="endArrow=none;html=1;exitX=0.5;exitY=1.123;exitDx=0;exitDy=0;exitPerimeter=0;entryX=0.382;entryY=0.008;entryDx=0;entryDy=0;entryPerimeter=0;" parent="1" source="9" target="2" edge="1">
                    <mxGeometry width="50" height="50" relative="1" as="geometry">
                        <mxPoint x="411.8799999999999" y="242" as="sourcePoint"/>
                        <mxPoint x="411.8937999999998" y="341.19499999999994" as="targetPoint"/>
                        <Array as="points">
                            <mxPoint x="371" y="190"/>
                        </Array>
                    </mxGeometry>
                </mxCell>
                <mxCell id="27" value="" style="endArrow=none;html=1;exitX=0.532;exitY=1.067;exitDx=0;exitDy=0;exitPerimeter=0;" parent="1" source="10" edge="1">
                    <mxGeometry width="50" height="50" relative="1" as="geometry">
                        <mxPoint x="381.03499999999985" y="103.69000000000005" as="sourcePoint"/>
                        <mxPoint x="407.03" y="190" as="targetPoint"/>
                        <Array as="points">
                            <mxPoint x="429" y="190"/>
                        </Array>
                    </mxGeometry>
                </mxCell>
                <mxCell id="28" value="" style="endArrow=none;html=1;exitX=0.471;exitY=1.095;exitDx=0;exitDy=0;exitPerimeter=0;entryX=0.553;entryY=-0.012;entryDx=0;entryDy=0;entryPerimeter=0;" parent="1" source="11" target="21" edge="1">
                    <mxGeometry width="50" height="50" relative="1" as="geometry">
                        <mxPoint x="438.5294000000001" y="102.00999999999999" as="sourcePoint"/>
                        <mxPoint x="417.03" y="200" as="targetPoint"/>
                        <Array as="points">
                            <mxPoint x="534" y="189"/>
                        </Array>
                    </mxGeometry>
                </mxCell>
                <mxCell id="29" value="" style="endArrow=none;html=1;exitX=0.471;exitY=1.039;exitDx=0;exitDy=0;exitPerimeter=0;" parent="1" source="20" edge="1">
                    <mxGeometry width="50" height="50" relative="1" as="geometry">
                        <mxPoint x="544.37195" y="102.85000000000002" as="sourcePoint"/>
                        <mxPoint x="558.03" y="190" as="targetPoint"/>
                        <Array as="points">
                            <mxPoint x="594" y="190"/>
                        </Array>
                    </mxGeometry>
                </mxCell>
                <mxCell id="30" value="B协议插件服务" style="text;html=1;align=center;verticalAlign=middle;resizable=0;points=[];autosize=1;strokeColor=none;fillColor=none;" parent="1" vertex="1">
                    <mxGeometry x="550.48" y="232" width="100" height="20" as="geometry"/>
                </mxCell>
            </root>
        </mxGraphModel>
    </diagram>
</mxfile>